<svg width="130" height="38" viewBox="0 0 130 38" fill="none" xmlns="http://www.w3.org/2000/svg">
<g clip-path="url(#clip0_1_12)">
<path d="M0 12.2056C0 10.7151 0.257242 9.4353 0.771727 8.36609C1.25351 7.33808 1.96982 6.43632 2.86355 5.73268C3.78711 5.0257 4.84417 4.51107 5.97173 4.21947C7.21504 3.89081 8.49672 3.72818 9.78309 3.73586C11.9576 3.73586 13.559 4.0214 14.5872 4.59248C15.6154 5.16356 16.1275 6.13589 16.1235 7.50947C16.1254 8.00698 16.0207 8.49917 15.8165 8.95325C15.6123 9.40733 15.3133 9.81288 14.9394 10.1429C14.3815 9.99697 13.8013 9.87264 13.1985 9.76987C12.5076 9.66061 11.8087 9.60905 11.1091 9.61573C9.84848 9.61573 8.86364 9.82792 8.15455 10.2523C7.44545 10.6767 7.09091 11.4168 7.09091 12.4727V13.873H14.3177C14.5215 14.2596 14.6912 14.6632 14.8247 15.0791C14.9893 15.5968 15.0691 16.1375 15.0611 16.6805C15.0611 17.705 14.8334 18.4436 14.378 18.8962C13.9226 19.3488 13.3132 19.5755 12.5497 19.5763H7.49155V33.4859C7.03574 33.6056 6.57214 33.6937 6.10409 33.7495C5.45402 33.8387 4.79849 33.8828 4.14227 33.8812C3.5593 33.8864 2.97694 33.8423 2.40145 33.7495C1.93224 33.6797 1.48655 33.4994 1.10145 33.2235C0.737273 32.9447 0.455524 32.5731 0.286 32.148C0.0953333 31.6954 0 31.1031 0 30.3712V12.2056Z" fill="white"/>
<path d="M26.8202 11.1962C28.2814 11.1821 29.7389 11.3441 31.161 11.6786C32.4681 12.001 33.5846 12.4909 34.5103 13.1483C35.422 13.7908 36.1571 14.651 36.6482 15.6499C37.1469 16.6595 37.3967 17.8515 37.3975 19.2258V29.0546C37.3975 29.8163 37.1844 30.438 36.7581 30.9197C36.319 31.4122 35.8059 31.8342 35.2371 32.1705C33.3273 33.3103 30.6391 33.8806 27.1724 33.8814C25.7573 33.8963 24.3452 33.749 22.9639 33.4425C21.8221 33.1943 20.7332 32.7478 19.747 32.1234C18.8758 31.5668 18.1625 30.7971 17.6753 29.8877C17.1908 28.9809 16.9485 27.9278 16.9485 26.7283C16.9485 24.7092 17.5508 23.1587 18.7555 22.0769C19.9602 20.9952 21.8259 20.3221 24.3526 20.0577L30.1258 19.4435V19.1376C30.1258 18.2888 29.7511 17.6816 29.0019 17.3161C28.2526 16.9505 27.1732 16.7681 25.7637 16.7689C24.6671 16.7673 23.5736 16.8857 22.503 17.1219C21.524 17.3328 20.5651 17.6276 19.6371 18.0033C19.2156 17.6888 18.8834 17.2708 18.6728 16.7901C18.412 16.2651 18.2766 15.6872 18.2768 15.1016C18.2768 14.3414 18.4604 13.7343 18.8276 13.2801C19.1947 12.8259 19.7581 12.4391 20.5176 12.1198C21.493 11.7681 22.5064 11.5311 23.5371 11.4138C24.6258 11.273 25.7224 11.2003 26.8202 11.1962V11.1962ZM27.1748 28.4404C27.7297 28.436 28.2832 28.3844 28.8293 28.2863C29.432 28.1851 29.8799 28.0509 30.1742 27.8697V24.3573L27.001 24.6209C26.1785 24.6797 25.5029 24.8551 24.9742 25.1469C24.7286 25.2668 24.523 25.4549 24.3823 25.6886C24.2416 25.9222 24.1717 26.1913 24.1812 26.4636C24.1741 26.7371 24.2318 27.0085 24.3494 27.2558C24.467 27.5031 24.6414 27.7195 24.8584 27.8874C25.3146 28.2568 26.0859 28.4412 27.1724 28.4404H27.1748Z" fill="white"/>
<path d="M54.0552 17.0761C53.3423 17.0729 52.6343 17.1923 51.9622 17.4291C51.3233 17.6499 50.7376 18.0009 50.2427 18.4599C49.7414 18.9376 49.344 19.5127 49.075 20.1496C48.7658 20.9009 48.6158 21.7077 48.6342 22.5194C48.6342 24.3339 49.1558 25.6941 50.1989 26.6002C51.2421 27.5062 52.5122 27.9588 54.0091 27.958C54.785 27.9734 55.5586 27.8703 56.303 27.6521C56.8898 27.4704 57.4638 27.2503 58.0214 26.9932C58.5504 27.3438 59.0006 27.7997 59.3439 28.3322C59.6488 28.8583 59.8014 29.4583 59.7847 30.0655C59.7847 31.2641 59.2115 32.1929 58.0651 32.8519C56.9188 33.5108 55.3324 33.8399 53.3059 33.8391C51.4552 33.8391 49.7806 33.5685 48.282 33.0272C46.8569 32.5298 45.5459 31.7541 44.4258 30.7456C43.3497 29.7616 42.5002 28.5573 41.9357 27.2156C41.3341 25.7698 41.0341 24.2172 41.054 22.6524C41.054 20.7218 41.3692 19.0325 41.9995 17.5844C42.5751 16.2106 43.4578 14.9856 44.5806 14.0026C45.6828 13.0574 46.9638 12.3412 48.3482 11.8963C49.8062 11.4217 51.3312 11.1833 52.8651 11.1903C54.9806 11.1903 56.6115 11.5708 57.7579 12.3317C58.9042 13.0926 59.477 14.0732 59.4762 15.2734C59.4789 15.8179 59.3423 16.3541 59.0791 16.8313C58.8319 17.29 58.5204 17.7111 58.1538 18.0822C57.5674 17.815 56.9637 17.5874 56.3468 17.4009C55.6038 17.1777 54.8312 17.0682 54.0552 17.0761V17.0761Z" fill="white"/>
<path d="M74.1957 33.8814C72.5597 33.8958 70.9318 33.6515 69.3727 33.1578C67.9444 32.7059 66.6246 31.9665 65.4952 30.9856C64.3651 29.9813 63.4765 28.7366 62.8952 27.3438C62.2649 25.8808 61.9497 24.1695 61.9497 22.2099C61.9497 20.2786 62.2649 18.6183 62.8952 17.229C63.5255 15.8398 64.3555 14.6992 65.3853 13.8073C66.4121 12.9156 67.612 12.2435 68.9106 11.8328C70.2205 11.4107 71.5887 11.1959 72.9654 11.1962C74.4144 11.1788 75.855 11.4178 77.22 11.9022C78.4351 12.3324 79.5578 12.9871 80.5291 13.832C81.4516 14.6477 82.1878 15.6508 82.6883 16.7737C83.2096 17.9476 83.4727 19.219 83.46 20.5026C83.46 21.498 83.1807 22.259 82.6221 22.7853C82.0635 23.3117 81.285 23.6478 80.2868 23.7937L69.3916 25.4164C69.7146 26.3813 70.3757 27.1053 71.3747 27.5885C72.3737 28.0718 73.5185 28.3118 74.8091 28.3087C75.9636 28.3156 77.1134 28.1607 78.2245 27.8486C79.2968 27.5419 80.171 27.1834 80.847 26.7731C81.3358 27.0852 81.7442 27.5072 82.0394 28.0051C82.3549 28.5046 82.5228 29.0824 82.524 29.6724C82.524 30.9888 81.9075 31.9693 80.6744 32.6141C79.6821 33.1277 78.6089 33.4687 77.5013 33.6226C76.4074 33.7901 75.3025 33.8766 74.1957 33.8814V33.8814ZM72.9619 16.6372C72.3337 16.6226 71.7097 16.743 71.1324 16.9902C70.655 17.1971 70.2268 17.5023 69.8762 17.8856C69.5573 18.2452 69.3106 18.6622 69.1493 19.1141C68.9892 19.5589 68.8925 20.0239 68.8622 20.4955L76.3986 19.2671C76.3104 18.6826 75.9874 18.0978 75.4295 17.5126C74.8717 16.9274 74.0492 16.6356 72.9619 16.6372Z" fill="white"/>
<path d="M123.963 0H98.6074C97.0078 0.00465644 95.475 0.639398 94.3439 1.76557C93.2128 2.89175 92.5753 4.41784 92.5706 6.01049V31.2562C92.575 32.8489 93.2124 34.3752 94.3436 35.5014C95.4748 36.6277 97.0077 37.2623 98.6074 37.2667H123.963C125.563 37.262 127.096 36.6273 128.227 35.5011C129.358 34.3749 129.995 32.8488 130 31.2562V6.01049C129.995 4.41793 129.357 2.89203 128.226 1.76592C127.095 0.639805 125.563 0.00496513 123.963 0V0ZM106.328 32.4458C106.034 32.4984 105.6 32.5717 105.028 32.6658C104.454 32.7581 103.873 32.8045 103.291 32.8047C102.762 32.8094 102.233 32.7701 101.711 32.687C101.284 32.6236 100.879 32.4594 100.529 32.2081C100.199 31.9556 99.9432 31.619 99.7892 31.2338C99.6151 30.822 99.5284 30.2846 99.5292 29.6218V13.4142C99.8223 13.3616 100.256 13.2887 100.829 13.1953C101.404 13.1039 101.986 13.0591 102.569 13.0612C103.098 13.0559 103.627 13.0953 104.149 13.1788C104.576 13.2419 104.981 13.4057 105.331 13.6566C105.661 13.9095 105.917 14.2465 106.071 14.632C106.243 15.0439 106.33 15.5812 106.331 16.2441L106.328 32.4458ZM105.629 10.3136C104.948 11.0039 104.048 11.3491 102.929 11.3491C101.81 11.3491 100.911 11.0039 100.23 10.3136C99.8966 9.97922 99.6345 9.58118 99.4594 9.14341C99.2844 8.70564 99.2 8.23716 99.2113 7.7661C99.2 7.29504 99.2845 6.82658 99.4595 6.38882C99.6346 5.95106 99.8966 5.55302 100.23 5.21858C100.911 4.52905 101.81 4.18389 102.929 4.1831C104.048 4.18232 104.948 4.52748 105.629 5.21858C105.962 5.55302 106.224 5.95106 106.399 6.38882C106.574 6.82658 106.659 7.29504 106.647 7.7661C106.659 8.23716 106.574 8.70564 106.399 9.14341C106.224 9.58118 105.962 9.97922 105.629 10.3136V10.3136ZM118.101 27.3108C118.542 27.6042 119.162 27.7505 119.96 27.7497C120.376 27.7487 120.79 27.7152 121.2 27.6497C121.58 27.5948 121.955 27.5082 122.321 27.3908C122.564 27.6908 122.772 28.0182 122.94 28.3663C123.123 28.7728 123.212 29.2152 123.2 29.6606C123.212 30.1318 123.116 30.5996 122.919 31.028C122.721 31.4564 122.428 31.834 122.061 32.1316C121.301 32.7678 119.962 33.0863 118.042 33.0871C115.697 33.0871 113.891 32.556 112.625 31.4939C111.359 30.4317 110.726 28.7059 110.726 26.3165V9.27931C111.019 9.20086 111.438 9.11457 111.984 9.02044C112.559 8.92494 113.141 8.8781 113.724 8.88041C114.896 8.88041 115.81 9.08594 116.463 9.49699C117.117 9.90805 117.444 10.7772 117.442 12.1045V14.6532H122.68C122.865 15.004 123.018 15.3702 123.14 15.7475C123.29 16.2171 123.365 16.7077 123.359 17.2007C123.359 18.1287 123.153 18.7987 122.74 19.2105C122.327 19.6223 121.776 19.8279 121.086 19.8271H117.442V25.8387C117.442 26.5298 117.662 27.0205 118.101 27.3108Z" fill="#03A473"/>
</g>
<defs>
<clipPath id="clip0_1_12">
<rect width="130" height="37.2667" fill="white"/>
</clipPath>
</defs>
</svg>
